<svg fill="none" height="36" viewBox="0 0 184 36" width="184" xmlns="http://www.w3.org/2000/svg"><path d="m43.5987 25.2254-6.8124-12.1268-6.8124-12.121061h-13.6248l6.8124 12.121061h-13.62474l-6.81238 12.1268h-2.72438v3.4648h18.9049v-3.4648h-2.5558l6.8124-12.1239h.0029l6.8095 12.1239h-2.5529v3.4648h18.902v-3.4648z" fill="#65bb38"/><path d="m9.53711 13.0986h13.62479l-6.8124 12.1268z" fill="#549e2e"/><path d="m16.3496.977539 6.8124 12.123961h13.6247l-6.8123-12.123961z" fill="#65bb38"/><path d="m43.5983 25.2254-6.8124-12.1268h-13.6248l6.8124 12.1268h-2.5528v3.4648h18.9019v-3.4648z" fill="#7ac454"/><path d="m16.3491 25.2254-6.81234-12.1268-6.81238 12.1268h-2.72438v3.4648h18.9049v-3.4648z" fill="#65bb38"/><g fill="#0f1423"><path d="m67.4859 19.5648c-2.1183-6.4036-2.6729-8.1217-3.2561-10.15141-.6146 2.02971-1.2292 3.84211-3.3476 10.15141zm-9.6253 9.1222h-3.0217l7.6099-22.05516h3.5334l7.5443 22.05516h-3.1761l-2.1584-6.5751h-8.0673z"/><path d="m85.9335 15.5368c-.6146-.2201-1.781-.3745-3.1932-.3745-3.7792 0-4.4853 1.6867-4.4853 5.9348 0 3.6849.8004 5.3401 3.8393 5.3401 1.2984.0206 2.5926-.1538 3.8392-.5174zm-4.0822 13.3389c-4.3282 0-6.3865-1.6866-6.3865-7.6528 0-6.6552 2.2413-8.5305 7.3384-8.5305 1.8439 0 4.271.2859 5.8976 1.032v14.0879c0 1.4293-.06 2.8587-.4602 4.0022-.4918 1.4294-1.6581 2.4671-3.4706 3.0932-1.8124.626-4.1766.9662-6.8809 1.092l-.123-2.3728c5.0371-.5317 6.881-1.0634 7.65-2.2498.3974-.5946.5203-1.375.5203-2.4385v-.6861c-1.315.4443-2.6975.6552-4.0851.6232z"/><path d="m92.3721 28.6875v-14.5567c1.9594-.9254 4.0994-1.4057 6.2663-1.4065.7084-.0139 1.4166.0282 2.1186.1257l-.183 2.4671c-.523-.0314-1.2295-.0629-1.7154-.0629-1.2619-.0162-2.5178.177-3.7164.5718v12.8643h-2.7701"/><path d="m103.684 28.6869h2.753v-15.5887h-2.764zm1.349-18.619c-.952 0-1.689-.37447-1.689-1.74953 0-1.28071.677-1.80958 1.689-1.80958s1.69.40594 1.69 1.781c0 1.3093-.615 1.77811-1.69 1.77811z"/><path d="m118.898 28.6871h-3.716l-5.078-22.0123h3.077c3.101 13.8992 3.716 16.8666 4.182 19.5309.572-2.5929 1.289-5.4316 4.86-18.36739h3.43c3.502 12.86429 4.268 15.96039 4.76 18.39889.492-2.4071 1.081-5.7175 4.182-19.5624h2.922l-5.077 22.0123h-3.705c-3.162-11.3692-4.114-15.1199-4.86-17.9615-.706 2.7787-1.689 6.6523-4.977 17.9615z"/><path d="m148.726 19.4111v-.4374c0-2.5729-.615-3.9679-3.431-3.9679-3.256 0-4.002 1.8753-4.085 4.4053zm-2.673 7.2155c1.501-.0273 2.994-.219 4.454-.5718l.368 2.2184c-1.506.5717-3.902.8119-5.345.8119-5.283 0-7.187-2.4986-7.187-8.1531 0-5.9348 2.364-8.2904 7.095-8.2904 4.668 0 5.866 2.47 5.866 7.1469.006.6054-.024 1.2106-.091 1.8124h-10.043c.029 4.3196 1.841 5.0257 4.883 5.0257z"/><path d="m160.287 26.6889c3.871 0 4.668-1.5008 4.668-5.7804 0-3.9364-.614-5.7775-3.807-5.7775-1.356.0072-2.698.261-3.963.749v10.3401c1.007.3003 2.051.4581 3.102.4688zm-5.866-20.01117h2.764v6.92097c1.609-.6519 3.333-.9709 5.069-.9376 3.776 0 5.466 2.3127 5.466 8.0302 0 6.9038-2.459 8.4018-7.402 8.4018-2.367 0-4.668-.5003-5.897-1.092z"/><path d="m176.567 26.6889c3.871 0 4.669-1.5008 4.669-5.7804 0-3.9364-.615-5.7775-3.808-5.7775-1.355.0072-2.698.261-3.962.749v10.3401c1.007.3003 2.051.4581 3.101.4688zm-5.866-20.01117h2.765v6.92097c1.607-.6514 3.331-.9704 5.065-.9376 3.78 0 5.469 2.3127 5.469 8.0302 0 6.9038-2.456 8.4018-7.401 8.4018-2.364 0-4.669-.5003-5.898-1.092z"/></g></svg>