<svg width="32" height="32" viewBox="0 0 32 32" fill="none" xmlns="http://www.w3.org/2000/svg">
<path d="M25.0407 16.8822C21.1968 16.8822 18.0812 20.0424 18.0812 23.9409C18.0812 27.8396 21.1968 31 25.0407 31C28.8842 31 32 27.8396 32 23.9409C32 20.0424 28.8842 16.8822 25.0407 16.8822ZM6.95941 16.8827C3.11595 16.8827 0 20.0424 0 23.9412C0 27.8396 3.11595 31 6.95941 31C10.8031 31 13.9192 27.8396 13.9192 23.9412C13.9192 20.0424 10.8031 16.8827 6.95941 16.8827ZM22.9592 8.05864C22.9592 11.9571 19.8436 15.118 16.0002 15.118C12.1564 15.118 9.04065 11.9571 9.04065 8.05864C9.04065 4.16043 12.1564 1 16.0002 1C19.8436 1 22.9592 4.16043 22.9592 8.05864Z" fill="#F06A6A"/>
</svg>
