<svg width="138" height="44" viewBox="0 0 138 44" fill="none" xmlns="http://www.w3.org/2000/svg">
<g clip-path="url(#clip0_1715_48656)">
<path d="M103.423 16.5937C103.423 16.432 103.302 16.3108 103.142 16.3108H102.073C101.512 16.3108 101.045 16.7822 101.045 17.348V17.5096V18.4256C101.045 18.5738 101.165 18.7085 101.325 18.7085H102.394C102.968 18.7085 103.423 18.237 103.423 17.6713V17.5096V16.5937Z" fill="#717162"/>
<path d="M76.4537 12.0134H75.3984C74.824 12.0134 74.3699 12.4849 74.3699 13.0506V32.2187C74.3699 32.3803 74.4901 32.5016 74.6504 32.5016H75.7056C76.2667 32.5016 76.7342 32.0301 76.7342 31.4644V12.2963C76.7342 12.1481 76.614 12.0134 76.4537 12.0134Z" fill="#717162"/>
<path d="M103.129 20.6882H102.073C101.512 20.6882 101.045 21.1597 101.045 21.7254V32.2187C101.045 32.3803 101.165 32.5016 101.325 32.5016H102.381C102.942 32.5016 103.409 32.0436 103.409 31.4644V20.9576C103.409 20.8095 103.276 20.6882 103.129 20.6882Z" fill="#717162"/>
<path d="M71.8719 31.2758C71.8586 31.2084 71.8452 31.1545 71.8319 31.1007L66.8628 12.5388C66.796 12.2424 66.5422 12.0134 66.2216 12.0134C65.9812 12.0134 65.7675 12.1481 65.6473 12.3502L55.4287 31.9628L55.3752 32.057C55.3619 32.0975 55.3485 32.1379 55.3485 32.1917C55.3485 32.3534 55.4821 32.4746 55.629 32.4746H57.2052C57.6193 32.4746 57.98 32.2322 58.1403 31.8685L59.9435 28.3932C60.1439 27.9891 60.5446 27.5176 61.3728 27.5176H67.17C67.6375 27.5176 68.3054 27.787 68.5592 28.5009L69.4809 32.2456C69.5076 32.3803 69.6145 32.4746 69.7614 32.4746H70.8701C71.4445 32.4746 71.8986 32.0166 71.8986 31.4374C71.8853 31.397 71.8853 31.3431 71.8719 31.2758ZM67.5574 24.4195C67.6108 24.6215 67.6375 25.1603 67.1032 25.1603H62.4414C61.867 25.1603 61.9071 24.608 62.0407 24.3656L65.3801 17.8999C65.5538 17.5766 65.8476 17.4419 65.9812 17.9538L67.5574 24.4195Z" fill="#717162"/>
<path d="M53.6654 11.8655L38.4778 17.954L32.6806 20.2844V20.2709C32.4535 20.3787 32.1997 20.446 31.9192 20.446C31.5452 20.446 31.1845 20.3248 30.904 20.1227L25.227 16.2568L20.1912 12.8354C19.4298 12.31 18.4547 12.566 18.0406 13.3877L8.59674 31.7475C8.16929 32.5692 8.52995 32.9598 9.38484 32.6231L25.2136 26.2921L30.5033 24.1773C30.7036 24.0964 30.904 24.056 31.1311 24.056C31.5185 24.056 31.8658 24.1773 32.1596 24.3928L38.4778 28.6898L42.8591 31.6667C43.6205 32.192 44.5956 31.9361 45.0097 31.1144L54.4535 12.7411C54.8676 11.9194 54.5203 11.5288 53.6654 11.8655ZM26.5227 22.736L25.2136 23.2613L15.3023 27.235C14.8882 27.3966 14.3806 27.5987 14.2337 27.4505C14.0734 27.2889 14.3005 26.777 14.5142 26.3594L19.0825 17.4826C19.2962 17.0785 19.6034 16.6878 19.9908 16.5801C20.3915 16.4723 20.8591 16.6744 21.2464 16.9303L25.227 19.6378L26.8166 20.7289C27.0971 20.9444 27.6715 21.3351 27.6715 21.7122C27.6581 22.2241 26.9501 22.5743 26.5227 22.736ZM38.4778 20.9714L47.7614 17.2536C47.8281 17.2267 47.8816 17.2132 47.9484 17.1997C48.3357 17.0515 48.7498 16.9034 48.8834 17.0381C49.0303 17.1997 48.8166 17.7116 48.6029 18.1292L44.0346 27.006C43.8208 27.4101 43.5136 27.8142 43.1396 27.9085C42.8457 27.9893 42.5252 27.9085 42.2179 27.7469C42.0844 27.7064 41.9641 27.6526 41.8306 27.5717L38.4911 25.2953L36.7012 24.0695C36.6478 24.0156 35.9265 23.4903 35.8864 23.4229C35.6727 23.2343 35.4723 22.9919 35.4723 22.7764C35.4723 22.3857 35.9131 22.0759 36.3005 21.8873L38.4778 20.9714Z" fill="#F37121"/>
<path d="M111.103 20.3113C107.697 20.3113 105.533 23.0996 105.533 26.521C105.533 29.9425 107.697 32.7308 111.103 32.7308C114.509 32.7308 116.673 29.9425 116.673 26.521C116.673 23.0996 114.509 20.3113 111.103 20.3113ZM111.103 30.4274C109.073 30.4274 107.937 28.6763 107.937 26.521C107.937 24.3658 109.086 22.6147 111.103 22.6147C113.134 22.6147 114.269 24.3658 114.269 26.521C114.269 28.6763 113.12 30.4274 111.103 30.4274Z" fill="#717162"/>
<path d="M98.6005 31.5993L98.4402 31.2625C98.133 30.6429 97.4651 30.2927 96.7972 30.4274C95.8221 30.616 94.9004 30.4813 94.2592 29.9559C93.6982 29.4979 93.4979 28.9995 93.4979 27.4774C93.4979 26.8443 93.4979 25.0932 93.4979 23.2343C93.4979 23.0727 93.6314 22.938 93.7917 22.938H96.9842C97.8658 22.938 98.5871 22.2106 98.5871 21.3215V20.9174C98.5871 20.7693 98.4669 20.6615 98.3333 20.6615H93.7784C93.6314 20.6615 93.5112 20.5403 93.5112 20.3921C93.5112 18.6949 93.5112 17.2131 93.5112 16.5935C93.5112 16.4184 93.3776 16.2837 93.204 16.2837H92.1888C91.6144 16.2837 91.1603 16.7551 91.1603 17.3209C91.1603 19.8263 91.1603 26.09 91.1603 27.4505C91.1603 29.5114 91.5343 31.0335 93.0036 31.963C93.8452 32.4883 95.1542 32.7038 96.1961 32.7038C96.9708 32.7038 97.7456 32.5153 98.3467 32.2863C98.6005 32.2189 98.7341 31.8822 98.6005 31.5993Z" fill="#717162"/>
<path d="M88.9162 25.7935V31.4914C88.9162 32.0437 88.4754 32.5017 87.9144 32.5017H86.8457C86.6855 32.5017 86.5652 32.367 86.5652 32.2188V31.478C86.5652 31.3971 86.4717 31.3567 86.4183 31.4106C85.6703 32.1784 84.5082 32.7442 83.4529 32.7442C82.0236 32.7442 80.9016 32.4209 79.9666 31.4645C79.3254 30.8044 78.9915 29.9154 78.9915 28.9186C78.9915 27.0463 80.4608 25.9148 81.7565 25.3894C82.9186 24.9315 84.5616 24.6755 86.2981 24.5812C86.4317 24.5812 86.5385 24.4735 86.5252 24.3388C86.5252 23.8538 86.4584 23.2611 85.7504 22.7628C84.7753 22.0758 83.5331 22.2239 82.1305 22.8032C81.4493 23.086 80.7413 22.884 80.207 22.3317C80.1536 22.2778 80.0734 22.197 79.9933 22.1027C79.7929 21.8872 79.8196 21.5235 80.0601 21.3619C82.2641 19.8936 85.4833 20.0283 86.9927 20.9577C88.6223 21.9545 88.9162 23.5575 88.9162 25.7935ZM86.5786 27.2483V26.8307C86.5786 26.696 86.4717 26.5883 86.3382 26.5883C85.0692 26.6018 83.5998 26.7634 82.7717 27.1001C82.0236 27.41 81.3424 27.9892 81.3424 28.8782C81.3424 29.9828 82.2507 30.6428 83.3594 30.6563C84.0273 30.6563 84.989 30.3465 85.7504 29.4709C86.2046 28.9456 86.5786 28.3259 86.5786 27.2483Z" fill="#717162"/>
<path d="M124.528 20.3113C123.232 20.3113 122.177 20.8231 121.268 21.5775C121.202 21.6314 121.095 21.5909 121.095 21.5101V20.9578C121.095 20.7962 120.975 20.675 120.814 20.675H119.759C119.198 20.675 118.73 21.133 118.73 21.7122V32.2189C118.73 32.3806 118.851 32.5018 119.011 32.5018H120.066C120.627 32.5018 121.095 32.0438 121.095 31.4646V25.7398C121.095 24.2985 122.123 22.6281 124.287 22.6281C126.318 22.6416 127.213 23.9213 127.213 25.5781V32.2189C127.213 32.3806 127.333 32.5018 127.493 32.5018H128.548C129.109 32.5018 129.577 32.0438 129.577 31.4646V25.4973C129.577 22.022 127.213 20.3113 124.528 20.3113Z" fill="#717162"/>
</g>
<defs>
<clipPath id="clip0_1715_48656">
<rect width="121.154" height="21" fill="white" transform="translate(8.4231 11.7441)"/>
</clipPath>
</defs>
</svg>
