<svg width="121" height="121" viewBox="0 0 121 121" fill="none" xmlns="http://www.w3.org/2000/svg">
<circle cx="60.7275" cy="60.6113" r="60" fill="#2A3E92"/>
<path d="M34.6868 104.197L39.6929 99.701C39.9477 99.4704 40.2026 99.2095 40.4574 98.9183C40.7123 98.627 40.8397 98.2872 40.8397 97.8988C40.8397 97.4619 40.6819 97.1221 40.3664 96.8794C40.0509 96.6246 39.6807 96.4971 39.256 96.4971C38.7462 96.4971 38.3458 96.6549 38.0545 96.9704C37.7754 97.286 37.6176 97.6743 37.5812 98.1355L34.8506 97.9352C34.887 97.2678 35.0266 96.6913 35.2693 96.2059C35.512 95.7083 35.8336 95.2957 36.2341 94.968C36.6346 94.6403 37.1018 94.3976 37.6358 94.2399C38.1819 94.07 38.7705 93.985 39.4016 93.985C39.9841 93.985 40.5302 94.07 41.0399 94.2399C41.5496 94.3976 41.9926 94.6403 42.3688 94.968C42.745 95.2835 43.0363 95.684 43.2426 96.1695C43.4611 96.6549 43.5703 97.2192 43.5703 97.8624C43.5703 98.275 43.5278 98.6513 43.4429 98.9911C43.3579 99.3187 43.2365 99.6221 43.0788 99.9013C42.9331 100.168 42.7572 100.417 42.5509 100.648C42.3446 100.878 42.12 101.103 41.8773 101.321L37.9635 104.689H43.6795V107.092H34.6868V104.197ZM51.6127 96.7156H45.2413V94.2034H54.6709V96.6064L49.5193 107.092H46.3336L51.6127 96.7156ZM55.9415 100.648C55.9415 99.8831 56.0083 99.1064 56.1418 98.3175C56.2874 97.5287 56.5362 96.8127 56.8881 96.1695C57.2522 95.5263 57.7437 95.0044 58.3626 94.6039C58.9816 94.1913 59.7704 93.985 60.7291 93.985C61.6879 93.985 62.4767 94.1913 63.0957 94.6039C63.7146 95.0044 64.2 95.5263 64.552 96.1695C64.916 96.8127 65.1648 97.5287 65.2983 98.3175C65.444 99.1064 65.5168 99.8831 65.5168 100.648C65.5168 101.412 65.444 102.189 65.2983 102.978C65.1648 103.767 64.916 104.483 64.552 105.126C64.2 105.769 63.7146 106.297 63.0957 106.71C62.4767 107.11 61.6879 107.31 60.7291 107.31C59.7704 107.31 58.9816 107.11 58.3626 106.71C57.7437 106.297 57.2522 105.769 56.8881 105.126C56.5362 104.483 56.2874 103.767 56.1418 102.978C56.0083 102.189 55.9415 101.412 55.9415 100.648ZM58.6721 100.648C58.6721 100.987 58.6842 101.394 58.7085 101.867C58.7449 102.341 58.8299 102.796 58.9634 103.233C59.0969 103.669 59.2971 104.04 59.5641 104.343C59.8432 104.646 60.2316 104.798 60.7291 104.798C61.2146 104.798 61.5969 104.646 61.876 104.343C62.1551 104.04 62.3614 103.669 62.4949 103.233C62.6284 102.796 62.7073 102.341 62.7316 101.867C62.768 101.394 62.7862 100.987 62.7862 100.648C62.7862 100.308 62.768 99.9013 62.7316 99.428C62.7073 98.9547 62.6284 98.4996 62.4949 98.0627C62.3614 97.6258 62.1551 97.2556 61.876 96.9522C61.5969 96.6488 61.2146 96.4971 60.7291 96.4971C60.2316 96.4971 59.8432 96.6488 59.5641 96.9522C59.2971 97.2556 59.0969 97.6258 58.9634 98.0627C58.8299 98.4996 58.7449 98.9547 58.7085 99.428C58.6842 99.9013 58.6721 100.308 58.6721 100.648ZM66.7145 100.648C66.7145 99.8831 66.7813 99.1064 66.9148 98.3175C67.0604 97.5287 67.3092 96.8127 67.6611 96.1695C68.0252 95.5263 68.5167 95.0044 69.1356 94.6039C69.7546 94.1913 70.5434 93.985 71.5021 93.985C72.4609 93.985 73.2497 94.1913 73.8687 94.6039C74.4876 95.0044 74.973 95.5263 75.325 96.1695C75.689 96.8127 75.9378 97.5287 76.0713 98.3175C76.217 99.1064 76.2898 99.8831 76.2898 100.648C76.2898 101.412 76.217 102.189 76.0713 102.978C75.9378 103.767 75.689 104.483 75.325 105.126C74.973 105.769 74.4876 106.297 73.8687 106.71C73.2497 107.11 72.4609 107.31 71.5021 107.31C70.5434 107.31 69.7546 107.11 69.1356 106.71C68.5167 106.297 68.0252 105.769 67.6611 105.126C67.3092 104.483 67.0604 103.767 66.9148 102.978C66.7813 102.189 66.7145 101.412 66.7145 100.648ZM69.4451 100.648C69.4451 100.987 69.4572 101.394 69.4815 101.867C69.5179 102.341 69.6029 102.796 69.7364 103.233C69.8699 103.669 70.0701 104.04 70.3371 104.343C70.6162 104.646 71.0046 104.798 71.5021 104.798C71.9876 104.798 72.3699 104.646 72.649 104.343C72.9281 104.04 73.1344 103.669 73.2679 103.233C73.4014 102.796 73.4803 102.341 73.5046 101.867C73.541 101.394 73.5592 100.987 73.5592 100.648C73.5592 100.308 73.541 99.9013 73.5046 99.428C73.4803 98.9547 73.4014 98.4996 73.2679 98.0627C73.1344 97.6258 72.9281 97.2556 72.649 96.9522C72.3699 96.6488 71.9876 96.4971 71.5021 96.4971C71.0046 96.4971 70.6162 96.6488 70.3371 96.9522C70.0701 97.2556 69.8699 97.6258 69.7364 98.0627C69.6029 98.4996 69.5179 98.9547 69.4815 99.428C69.4572 99.9013 69.4451 100.308 69.4451 100.648ZM82.1295 97.2617L79.5446 99.5372L77.9972 97.7532L82.2023 94.2034H84.7509V107.092H82.1295V97.2617Z" fill="white"/>
<path fill-rule="evenodd" clip-rule="evenodd" d="M59.2789 25.7555C60.4229 25.6372 61.725 25.6767 62.7899 25.795L62.8689 25.8739L62.9085 25.795C72.3373 26.5445 81.0565 31.7128 86.3428 39.7609C86.0744 39.8952 85.8059 39.865 85.5125 39.832C85.3748 39.8165 85.2316 39.8004 85.0803 39.8004C83.3839 37.315 81.2537 35.0662 78.8469 33.2119L78.4524 33.3698L75.6907 34.9872V35.1844C76.3615 35.8947 76.914 36.5653 77.4268 37.315C78.0579 38.0646 78.6497 38.9324 79.1232 39.8004C78.8713 39.8948 78.5438 39.8888 78.2012 39.8826C78.1146 39.881 78.0271 39.8794 77.9396 39.8794C76.914 38.3801 75.7697 36.8415 74.5469 35.5397C74.4534 35.5779 74.3601 35.6161 74.2668 35.6543C72.6279 36.3255 71.0168 36.9853 69.2995 37.4333L69.2209 37.5123L70.2071 39.8004C69.9981 39.9198 69.6761 39.9037 69.3779 39.8888C69.282 39.884 69.1886 39.8794 69.1022 39.8794L68.0373 37.8278L67.8401 37.7883C65.6305 38.3406 63.224 38.5774 60.9357 38.6958C60.8517 38.8849 60.8572 39.0965 60.8628 39.3125C60.8677 39.502 60.8727 39.695 60.8174 39.8794H59.7522C59.706 39.7408 59.7139 39.5662 59.722 39.3884C59.7345 39.1104 59.7474 38.8247 59.5549 38.6563C57.109 38.5774 54.7024 38.3013 52.414 37.7883C52.1878 38.1729 52.0006 38.5834 51.815 38.9901C51.677 39.2927 51.5399 39.5932 51.3885 39.8794C51.3443 39.8834 51.3018 39.8874 51.2606 39.8912C50.8966 39.9255 50.6341 39.9502 50.2442 39.8794L51.2305 37.5911L51.0727 37.4333C49.6716 37.0511 48.3218 36.5405 46.9613 36.0258C46.6362 35.9029 46.3106 35.7797 45.9834 35.658C44.7209 36.9598 43.6558 38.4196 42.6695 39.8794C42.275 39.9582 41.762 39.9977 41.486 39.8794C42.3199 38.3562 43.454 36.9332 44.5817 35.5182C44.6809 35.3938 44.78 35.2695 44.8788 35.1451C44.4102 34.8452 43.9058 34.563 43.3955 34.2775C42.8319 33.9622 42.2609 33.6428 41.7227 33.2908C40.7136 33.9394 39.8363 34.7857 38.9102 35.679C38.8224 35.7637 38.7342 35.8488 38.6453 35.9342C37.4617 37.1965 36.3967 38.4986 35.4497 39.8399C35.2057 39.9375 34.9316 39.9144 34.6646 39.8919C34.4998 39.878 34.3378 39.8643 34.1873 39.8794C39.6316 31.476 48.3506 26.5445 57.8191 25.795C58.3318 25.7555 58.8449 25.716 59.2789 25.7555ZM66.8537 27.6493V27.5703C62.7113 26.505 57.7796 26.584 53.5976 27.5703C53.6244 27.7577 53.8145 27.8542 53.9956 27.9461C54.0815 27.9898 54.1654 28.0323 54.2289 28.0831C57.8586 30.4109 63.4213 30.1741 66.8537 27.6493ZM77.6241 32.5413L77.703 32.3835C74.8624 30.3319 71.7456 28.8328 68.4318 27.9648C68.3729 28.0069 68.3086 28.049 68.2431 28.0919C68.0016 28.2499 67.7442 28.4183 67.6821 28.6356C70.1675 30.0952 72.6136 31.9495 74.7045 34.0799H74.9017L77.6241 32.5413ZM45.7862 34.1981C47.9955 31.989 50.4022 30.1742 52.8481 28.6356C52.7323 28.5199 52.5895 28.4177 52.4434 28.3131C52.3404 28.2395 52.2358 28.1646 52.138 28.0831C51.9815 27.9491 51.8377 28.0049 51.6851 28.0641C51.5683 28.1095 51.4463 28.1568 51.3095 28.1226V28.0438C51.1787 28.0438 51.102 28.1251 51.0123 28.2203C50.9937 28.2399 50.9747 28.2601 50.9544 28.2804C48.035 29.2274 45.2734 30.6082 42.7878 32.4623V32.5413C43.7346 33.2119 44.7209 33.8036 45.7862 34.1981ZM73.4816 34.7111L73.5606 34.5927C71.4693 32.4623 68.9839 30.6082 66.4195 29.3062C66.1448 29.4528 65.8529 29.5823 65.5639 29.7106C65.2304 29.8586 64.9006 30.005 64.6049 30.1741C66.104 32.1862 67.4455 34.2771 68.6684 36.368C70.3647 36.013 71.9428 35.3817 73.4816 34.7111ZM55.6887 30.4109L55.807 30.0952C55.4129 29.9114 55.0187 29.7625 54.6246 29.6136C54.427 29.5389 54.2293 29.4642 54.0316 29.3851C51.5067 30.7265 49.2186 32.4623 47.0487 34.5534L46.9698 34.7899C48.4689 35.4607 50.0469 35.9735 51.6645 36.4075L51.8223 36.368C51.8862 36.2593 51.9502 36.1505 52.0142 36.0416C53.1346 34.1349 54.2704 32.2022 55.6887 30.4109ZM59.6861 35.55C59.7022 33.9453 59.7186 32.3141 59.6339 30.8447L57.109 30.4897C55.4914 32.4228 54.1501 34.5139 53.0058 36.6837C53.8386 36.9613 54.8402 37.0941 55.7466 37.2144C55.9996 37.248 56.2453 37.2805 56.4777 37.315C56.7675 37.3357 57.0492 37.3645 57.3269 37.3929C58.108 37.4729 58.8584 37.5497 59.6734 37.4333C59.6734 36.8175 59.6797 36.1859 59.6861 35.55ZM67.4058 36.6837C66.3802 34.5139 64.8811 32.5018 63.3423 30.5292C62.9478 30.5884 62.5335 30.6475 62.1193 30.7067C61.705 30.7659 61.2907 30.8251 60.8962 30.8842C60.8569 33.0541 60.8174 35.3817 60.8962 37.4728C63.1058 37.4728 65.2756 37.1965 67.4058 36.6837ZM45.7862 44.7714C49.7314 41.8912 55.807 42.0885 60.1467 43.9428L61.9615 44.9291C62.0802 44.6442 62.0703 44.2879 62.0608 43.9461C62.0545 43.7199 62.0483 43.5001 62.0798 43.3116C63.8551 43.2328 66.025 43.2328 67.8004 43.2721C67.8122 44.2494 67.8311 45.1881 67.8496 46.11C67.8931 48.2773 67.9348 50.3527 67.8793 52.6223C66.4475 52.682 64.9479 52.674 63.5513 52.6665C63.1008 52.6641 62.661 52.6618 62.2378 52.6618C60.6202 50.0974 57.7796 49.1506 55.0179 48.7561C54.8017 48.7495 54.5734 48.7331 54.3396 48.7164C53.1665 48.6323 51.8557 48.5383 51.2305 49.6239C51.1517 50.0579 51.349 50.4129 51.6645 50.6892L52.3747 51.0442L61.9222 53.8453C65.1177 54.6739 68.2739 57.7118 68.7077 61.0651C69.1419 64.4972 67.5638 67.693 64.6049 69.3501C60.5412 71.4802 55.2547 71.0857 51.1517 69.3501C50.9287 69.232 50.7058 69.1096 50.4828 68.9871C50.0351 68.7413 49.5874 68.4954 49.1396 68.2848L49.0606 70.1784L43.1428 70.2177C43.0245 67.0616 43.064 63.3926 43.1428 60.1971L48.4688 60.1575C48.6268 60.3548 48.7551 60.572 48.8834 60.7891C49.0115 61.006 49.1397 61.2228 49.2974 61.42C51.9802 64.2606 56.0042 65.0497 59.7127 64.024L59.7257 64.0166C59.9999 63.8599 60.3439 63.6633 60.3439 63.3136C60.4229 62.8798 59.9494 62.5246 59.5944 62.367C57.9393 61.7968 56.2586 61.2953 54.58 60.7944C52.6576 60.2207 50.738 59.6479 48.8634 58.9739C46.299 57.9876 43.6163 55.8967 43.1035 53.0563C42.4327 50.0579 43.2218 46.665 45.7862 44.7714ZM75.3752 44.6529C80.6619 41.6547 88.4734 41.8913 93.6022 45.2054C95.3775 46.4283 96.8373 48.1248 97.5474 50.0184C99.3227 54.9104 99.1254 61.42 96.2058 65.7597C94.9433 67.4168 93.2469 68.6396 91.4716 69.3894L91.304 69.4633C90.7122 69.7839 89.8492 70.0058 89.578 70.0601C83.8574 71.6775 77.4268 70.8095 73.0081 66.8643C69.2209 63.1164 68.9446 57.1593 70.0099 52.1488C70.6017 49.1111 72.4953 46.1522 75.3752 44.6529ZM24.127 42.8776L26.573 42.8382L41.4464 42.8776C41.5647 44.9291 41.5254 47.3358 41.486 49.5844L37.5802 49.6239L37.5013 49.7424L37.4618 63.5899C38.199 63.6821 39.0034 63.6801 39.8044 63.6782C40.3752 63.6768 40.9442 63.6754 41.486 63.7081V70.2177H24.0875C24.0086 68.0479 24.0086 65.9177 24.0875 63.7081L27.9933 63.6295L28.0328 63.077V49.6634C27.1619 49.5843 26.3087 49.5757 25.4377 49.5669C25.0066 49.5625 24.5711 49.5581 24.127 49.5451C24.0875 47.4146 24.0875 44.9686 24.127 42.8776ZM51.2379 73.1241C51.354 73.1307 51.4715 73.1373 51.5857 73.1373L52.6508 75.2282C54.9391 74.7551 57.3062 74.4784 59.7522 74.3606C59.8955 74.1214 59.8797 73.897 59.8625 73.652C59.8513 73.4924 59.8395 73.3241 59.8706 73.1373H60.8962C60.9804 73.3055 60.9749 73.5297 60.9693 73.7562C60.9643 73.9547 60.9594 74.155 61.0147 74.3209C63.3817 74.4784 65.946 74.7551 68.2739 75.2674L69.3392 73.1373H70.4044C70.3106 73.606 70.0916 74.0606 69.8714 74.5178C69.7208 74.8305 69.5696 75.1443 69.4574 75.4647L69.6547 75.6227C71.43 76.0962 73.0081 76.7277 74.7441 77.4374C76.0054 76.1764 77.0074 74.6927 77.9656 73.2739C77.9964 73.2283 78.0272 73.1828 78.0579 73.1373H79.2811C78.3341 74.8337 77.1113 76.3724 75.8487 77.9112C76.3519 78.2466 76.8885 78.5487 77.4291 78.8528C77.9055 79.1209 78.3849 79.3907 78.8469 79.6866C78.9259 79.8045 79.1625 79.8441 79.2414 79.7258C81.5296 77.9112 83.6209 75.5834 85.2775 73.1766C85.6721 73.1373 86.1853 73.1373 86.5401 73.1766C79.8332 83.5131 68.2739 88.7605 56.162 87.1428C52.6508 86.6693 49.3369 85.5647 46.2202 84.0262C46.299 83.9866 46.2202 83.9076 46.1807 83.9076C46.1412 83.9076 46.1412 83.9469 46.1412 83.9469C41.5254 81.6195 37.1067 77.6743 34.2661 73.1766C34.3103 73.1729 34.353 73.1693 34.3947 73.1657C34.7998 73.131 35.0993 73.1054 35.5286 73.1766C37.1857 75.662 39.3948 78.0291 41.762 79.8441C42.5757 79.4664 43.3679 78.9815 44.1544 78.5001C44.4358 78.3279 44.7165 78.1561 44.9971 77.9898C44.9187 77.8918 44.8403 77.794 44.762 77.6962C43.5791 76.2199 42.4135 74.7652 41.5254 73.1373C41.6566 73.1612 41.8203 73.1418 41.9903 73.1216C42.3823 73.0751 42.8079 73.0246 42.9455 73.4925C43.8135 74.8337 44.8788 76.1752 45.9834 77.398L46.1412 77.477C47.8378 76.767 49.5736 76.1359 51.349 75.6227L51.4672 75.5044L50.4809 73.1766C50.6772 73.0926 50.9531 73.1081 51.2379 73.1241ZM58.6074 82.4069C59.0319 82.3581 59.4609 82.3088 59.8706 82.2112L59.8312 75.5441C57.6218 75.5441 55.4914 75.8592 53.4398 76.2537L53.2425 76.4117C54.3866 78.5816 55.7282 80.6728 57.3455 82.6057C57.7444 82.506 58.1735 82.4567 58.6074 82.4069ZM67.6821 76.451L67.6428 76.3331C65.5515 75.82 63.303 75.5834 61.0542 75.5441C60.9357 77.8715 60.9752 79.9231 61.0542 82.2509L61.725 82.3295C61.9949 82.3454 62.2584 82.3996 62.5208 82.4537C62.9101 82.5339 63.2968 82.6135 63.6976 82.5661C65.1966 80.6332 66.5775 78.5816 67.6821 76.451ZM56.0437 82.9606C54.6234 80.9094 53.2031 78.8578 52.059 76.688L51.9012 76.6483C50.2442 77.0825 48.6268 77.6346 47.088 78.3843V78.503C49.1791 80.6729 51.6645 82.4875 54.2684 83.7893C54.5442 83.6317 54.8497 83.5036 55.1551 83.3755C55.4612 83.2471 55.7673 83.1187 56.0437 82.9606ZM69.3784 82.1323C70.8775 81.0674 72.4953 79.8045 73.7578 78.3451C72.2583 77.5953 70.641 77.0428 68.9446 76.6483L68.8263 76.7277C67.7214 78.8182 66.4592 80.7908 65.0387 82.7241L64.9205 83.0003L66.6168 83.7497C67.3596 83.3786 68.078 82.9344 68.7911 82.4936C68.9871 82.3724 69.1828 82.2514 69.3784 82.1323ZM70.6017 84.5387C73.2053 83.5524 75.7697 82.3688 77.9789 80.5935C77.0323 79.9231 76.0063 79.3313 74.9414 78.8975C72.7716 81.0674 70.483 82.882 67.9583 84.3811L67.8793 84.4994L67.8821 84.5018C68.1575 84.7376 68.4329 84.9734 68.7474 85.1305L70.6017 84.5387ZM52.1775 85.1305C52.4535 84.9729 52.7693 84.736 52.9665 84.4994C50.4414 82.882 48.1138 81.1853 45.8652 78.9368C44.9806 79.3109 44.1548 79.8317 43.3369 80.3474C43.2063 80.4298 43.0759 80.512 42.9455 80.5935V80.7121C45.7862 82.7634 48.8634 84.2628 52.1775 85.1305ZM66.9489 85.5995C67.0565 85.5821 67.1687 85.5639 67.0903 85.4071C63.5003 82.803 57.7796 82.803 54.1106 85.2098C54.0729 85.2474 54.0191 85.277 53.966 85.3063C53.8523 85.369 53.7412 85.4302 53.7949 85.5647C57.9768 86.5906 62.6323 86.551 66.8141 85.6437C66.8407 85.617 66.8942 85.6084 66.9489 85.5995ZM88.5617 53.1379C88.4925 52.2642 88.4215 51.3665 87.9502 50.6439C87.0032 49.3813 85.5041 49.1446 83.9657 49.1446C82.5059 49.2631 80.8881 49.6575 80.2963 51.1962C79.6008 53.5031 79.7208 56.15 79.8362 58.6953C79.8451 58.8921 79.854 59.0884 79.8625 59.2838L79.8664 59.3179C80.0231 60.6886 80.1881 62.1316 81.4013 62.9925C82.8607 63.8208 84.9913 64.0181 86.5694 63.308C87.5557 62.9528 88.1868 61.9665 88.384 61.0198C88.6668 59.3793 88.6455 57.5362 88.6254 55.7957C88.6175 55.1082 88.6097 54.4367 88.621 53.8C88.5969 53.5831 88.5793 53.3613 88.5617 53.1379Z" fill="white"/>
<path d="M16.9168 93.0327L16.4201 92.3568L21.4054 88.6936L21.9021 89.3696L16.9168 93.0327Z" fill="white"/>
<path d="M15.1049 90.5699L14.5413 89.6241L17.1655 84.0935L17.1566 84.0785L12.7879 86.6816L12.3586 85.961L17.673 82.7943L18.2187 83.7101L15.6123 89.2707L15.6213 89.2857L19.9899 86.6825L20.4193 87.4031L15.1049 90.5699Z" fill="white"/>
<path d="M11.285 83.7301L9.73081 80.1659L10.4517 79.8515L11.6706 82.6468L13.4487 81.8715L12.3136 79.2684L13.0344 78.9541L14.1696 81.5571L16.6205 80.4884L16.9557 81.2573L11.285 83.7301Z" fill="white"/>
<path d="M14.3281 73.8428C14.4598 74.2959 14.5026 74.7354 14.4566 75.1613C14.4049 75.5888 14.2791 75.9803 14.0791 76.3357C13.8774 76.6855 13.6092 76.994 13.2743 77.2612C12.9379 77.5228 12.5487 77.7178 12.1068 77.8463C11.6649 77.9747 11.2318 78.0187 10.8075 77.9783C10.3816 77.9322 9.98981 77.8156 9.63207 77.6284C9.27271 77.4356 8.95944 77.1718 8.69224 76.8369C8.41945 76.5037 8.21721 76.1106 8.0855 75.6575C7.95379 75.2044 7.91376 74.7641 7.96541 74.3365C8.01146 73.9106 8.13531 73.5228 8.33694 73.173C8.53695 72.8176 8.80519 72.5091 9.14166 72.2475C9.4765 71.9803 9.86487 71.7825 10.3068 71.654C10.7487 71.5256 11.1826 71.4844 11.6085 71.5304C12.0328 71.5709 12.4246 71.6875 12.7839 71.8803C13.1417 72.0675 13.4569 72.3277 13.7297 72.6609C13.9969 72.9958 14.1964 73.3897 14.3281 73.8428ZM13.5729 74.0623C13.4737 73.7211 13.3228 73.4314 13.12 73.193C12.9117 72.9563 12.6728 72.771 12.4033 72.637C12.1339 72.503 11.841 72.4243 11.5249 72.401C11.2031 72.3793 10.88 72.4156 10.5556 72.5099C10.2311 72.6042 9.94172 72.7459 9.68733 72.9351C9.42735 73.126 9.21954 73.3502 9.06389 73.6077C8.90824 73.8653 8.80872 74.149 8.76534 74.4589C8.71636 74.7704 8.74146 75.0967 8.84065 75.438C8.93984 75.7792 9.09359 76.0681 9.30193 76.3048C9.50466 76.5431 9.74077 76.7293 10.0102 76.8633C10.2797 76.9973 10.5753 77.0751 10.8971 77.0969C11.2133 77.1202 11.5336 77.0847 11.858 76.9904C12.1824 76.8961 12.4746 76.7535 12.7346 76.5627C12.989 76.3735 13.194 76.1501 13.3497 75.8925C13.5053 75.635 13.6076 75.3504 13.6566 75.039C13.7 74.7291 13.6721 74.4036 13.5729 74.0623Z" fill="white"/>
<path d="M6.99581 70.5392L6.66474 68.3888C6.60446 67.9973 6.60952 67.6664 6.6799 67.3963C6.74454 67.127 6.84925 66.9075 6.99406 66.7379C7.13222 66.5634 7.3005 66.4314 7.4989 66.3419C7.69155 66.2533 7.88287 66.1944 8.07286 66.1651C8.26861 66.135 8.46393 66.1403 8.6588 66.181C8.84792 66.2226 9.02751 66.2981 9.19759 66.4075C9.36103 66.512 9.50919 66.6512 9.64208 66.8253C9.76832 66.9944 9.86068 67.1924 9.91917 67.4192L12.4414 65.2538L12.6009 66.2902L10.1458 68.2595L10.2881 69.1836L12.9825 68.7687L13.1102 69.5978L6.99581 70.5392ZM9.56263 69.2953L9.3951 68.2071C9.37028 68.0459 9.33439 67.8893 9.28743 67.7374C9.23382 67.5807 9.16317 67.4471 9.07546 67.3369C8.98687 67.2208 8.87348 67.1352 8.7353 67.0798C8.59135 67.0254 8.41575 67.0141 8.20848 67.046C8.00122 67.0779 7.84001 67.141 7.72487 67.2354C7.60398 67.3306 7.51873 67.4469 7.46915 67.5842C7.41867 67.7157 7.39433 67.8639 7.39612 68.0286C7.39127 68.1885 7.40125 68.3491 7.42607 68.5103L7.5936 69.5984L9.56263 69.2953Z" fill="white"/>
<path d="M6.13129 64.3259L6.11459 63.0765L10.7714 61.0481L10.7709 61.0132L6.06182 59.1274L6.04513 57.878L12.231 57.7953L12.2422 58.6341L7.15721 58.702L7.15744 58.7195L12.2703 60.7397L12.2778 61.2989L7.22072 63.455L7.22095 63.4725L12.3059 63.4045L12.3171 64.2433L6.13129 64.3259Z" fill="white"/>
<path d="M6.54382 53.341L6.64675 52.5878L13.1346 50.8022L13.0021 51.7718L11.4031 52.1795L11.0044 55.097L12.4367 55.9101L12.3042 56.8797L6.54382 53.341ZM10.6345 52.3831L7.66466 53.1414L7.6623 53.1587L10.3174 54.7033L10.6345 52.3831Z" fill="white"/>
<path d="M8.49011 47.2946L7.99296 49.2238L7.23143 49.0276L8.43505 44.3569L9.19658 44.5531L8.69943 46.4823L13.9286 47.8299L13.7193 48.6421L8.49011 47.2946Z" fill="white"/>
<path d="M8.95842 42.905L9.23231 42.1121L15.0797 44.132L14.8058 44.9249L8.95842 42.905Z" fill="white"/>
<path d="M16.9049 40.0842C16.7074 40.5127 16.4516 40.8726 16.1376 41.1641C15.8183 41.4531 15.4667 41.6662 15.0827 41.8034C14.7011 41.9354 14.2963 41.9925 13.8683 41.9748C13.4427 41.9518 13.021 41.8439 12.6031 41.6512C12.1851 41.4585 11.8293 41.2078 11.5354 40.8992C11.244 40.5852 11.0245 40.2403 10.8771 39.8644C10.7321 39.4832 10.6685 39.0786 10.6862 38.6506C10.6987 38.2202 10.8037 37.7907 11.0012 37.3622C11.1988 36.9337 11.4572 36.575 11.7765 36.286C12.0905 35.9945 12.4382 35.7828 12.8198 35.6509C13.2038 35.5136 13.6086 35.4565 14.0342 35.4795C14.4622 35.4973 14.8852 35.6025 15.3031 35.7952C15.721 35.9878 16.0757 36.2412 16.3671 36.5552C16.661 36.8638 16.8804 37.2088 17.0254 37.5899C17.1728 37.9658 17.2403 38.369 17.2279 38.7994C17.2101 39.2274 17.1025 39.6557 16.9049 40.0842ZM16.1908 39.7549C16.3395 39.4322 16.4155 39.1144 16.4186 38.8016C16.4165 38.4863 16.3576 38.1897 16.2419 37.9119C16.1263 37.634 15.9567 37.3826 15.7333 37.1577C15.5045 36.9304 15.2368 36.746 14.9299 36.6045C14.6231 36.4631 14.3116 36.3804 13.9955 36.3565C13.6741 36.3302 13.3702 36.3633 13.0838 36.4557C12.7974 36.5482 12.5362 36.6972 12.3004 36.9028C12.0592 37.1059 11.8642 37.3688 11.7154 37.6915C11.5666 38.0142 11.4933 38.3332 11.4955 38.6485C11.4923 38.9613 11.5486 39.2567 11.6642 39.5345C11.7799 39.8124 11.9521 40.065 12.1808 40.2923C12.4043 40.5172 12.6694 40.7004 12.9762 40.8418C13.2831 40.9833 13.5972 41.0672 13.9186 41.0935C14.2347 41.1174 14.536 41.0831 14.8224 40.9906C15.1088 40.8982 15.3726 40.7504 15.6138 40.5473C15.8496 40.3417 16.042 40.0776 16.1908 39.7549Z" fill="white"/>
<path d="M13.5178 32.7562L14.1189 31.8338L20.24 31.7551L20.2496 31.7404L15.9889 28.964L16.4468 28.2613L21.6299 31.6387L21.048 32.5318L14.9077 32.6398L14.8982 32.6545L19.1589 35.4309L18.7009 36.1336L13.5178 32.7562Z" fill="white"/>
<path d="M24.8544 25.921C25.1216 25.977 25.3771 25.9628 25.6209 25.8786C25.8648 25.786 26.0761 25.652 26.2548 25.4765C26.3546 25.3785 26.4421 25.264 26.5175 25.1329C26.5887 24.9976 26.6353 24.8579 26.6572 24.714C26.6832 24.5659 26.6784 24.4196 26.6426 24.2751C26.6069 24.1306 26.5298 23.9981 26.4114 23.8776C26.2441 23.7072 26.0635 23.6314 25.8698 23.6502C25.6719 23.6649 25.4634 23.7228 25.2441 23.8238C25.025 23.9165 24.7933 24.0297 24.549 24.1635C24.3048 24.2889 24.0527 24.3814 23.7927 24.4408C23.5368 24.4962 23.2732 24.4938 23.0018 24.4337C22.7264 24.3694 22.4479 24.1938 22.1663 23.9071C22.0398 23.7782 21.9321 23.6145 21.8433 23.416C21.7586 23.2134 21.7174 22.9926 21.7195 22.7537C21.7217 22.5148 21.7775 22.2641 21.887 22.0014C21.9966 21.7306 22.1843 21.4645 22.4503 21.2033C22.6914 20.9666 22.9547 20.7733 23.2403 20.6235C23.5259 20.4737 23.8518 20.4189 24.218 20.4593L24.1665 21.3795C23.9774 21.3366 23.7795 21.3472 23.573 21.4112C23.3665 21.4752 23.1759 21.593 23.0013 21.7644C22.8351 21.9277 22.7183 22.0872 22.651 22.2432C22.5837 22.3909 22.5516 22.5327 22.5544 22.6686C22.5532 22.8004 22.5769 22.9201 22.6253 23.0277C22.6779 23.1311 22.7369 23.2161 22.8022 23.2826C22.9859 23.4696 23.1807 23.5599 23.3867 23.5536C23.5928 23.5472 23.8053 23.4976 24.0245 23.4049C24.2478 23.3081 24.4775 23.1927 24.7135 23.0589C24.9537 22.9211 25.1976 22.8203 25.4453 22.7566C25.6932 22.6847 25.9466 22.6726 26.2057 22.7203C26.4607 22.7638 26.7188 22.9185 26.98 23.1845C27.1882 23.3965 27.3343 23.6285 27.4186 23.8805C27.5069 24.1285 27.5397 24.378 27.5168 24.6291C27.4939 24.8801 27.4196 25.1287 27.2938 25.3747C27.168 25.6207 26.9991 25.8478 26.7871 26.056C26.5045 26.3335 26.1875 26.5469 25.836 26.6961C25.4845 26.8453 25.1319 26.8895 24.7782 26.8286L24.8544 25.921Z" fill="white"/>
<path d="M25.3473 18.7524L28.4715 16.2655L28.9613 16.8808L26.4933 18.8453L27.6415 20.2877L29.9386 18.4593L30.4283 19.0746L28.1313 20.903L29.3666 22.4549L31.9576 20.3925L32.4474 21.0077L29.2001 23.5926L25.3473 18.7524Z" fill="white"/>
<path d="M34.8593 13.7749C34.5921 13.6713 34.3122 13.6366 34.0196 13.671C33.7271 13.7053 33.4587 13.7964 33.2147 13.9444C32.9158 14.1257 32.6791 14.3475 32.5044 14.6101C32.3318 14.8647 32.2172 15.1419 32.1607 15.4419C32.1091 15.7388 32.116 16.048 32.1815 16.3694C32.2439 16.6858 32.3657 16.9934 32.5469 17.2923C32.716 17.5712 32.9209 17.8081 33.1616 18.0027C33.4023 18.1974 33.6647 18.3381 33.9488 18.4247C34.2329 18.5113 34.5303 18.5354 34.8408 18.497C35.1513 18.4585 35.461 18.3457 35.7698 18.1585C36.0737 17.9742 36.3024 17.7504 36.456 17.4869C36.6096 17.2234 36.6982 16.9313 36.7217 16.6105L37.6032 16.6993C37.5966 16.7783 37.5752 16.9003 37.539 17.0653C37.4998 17.2253 37.4297 17.4075 37.3287 17.6117C37.2248 17.811 37.0784 18.019 36.8896 18.2357C36.7088 18.4543 36.4664 18.6557 36.1626 18.84C35.7442 19.0937 35.3173 19.2435 34.8819 19.2895C34.4515 19.3325 34.0383 19.2969 33.6421 19.1829C33.251 19.0658 32.895 18.8831 32.5741 18.6349C32.2503 18.3816 31.9871 18.0881 31.7848 17.7544C31.5371 17.3459 31.3763 16.9291 31.3024 16.5039C31.2255 16.0736 31.2311 15.6615 31.3192 15.2675C31.4092 14.8654 31.5813 14.492 31.8354 14.1472C32.0896 13.8023 32.4209 13.5061 32.8293 13.2584C33.178 13.047 33.56 12.9073 33.9753 12.8395C34.3955 12.7686 34.7973 12.8077 35.1807 12.9567L34.8593 13.7749Z" fill="white"/>
<path d="M37.3074 11.0356L38.8364 14.5059C38.914 14.6819 39.019 14.8552 39.1515 15.026C39.2817 15.1914 39.438 15.3294 39.6204 15.44C39.8028 15.5506 40.0069 15.6166 40.2328 15.6381C40.4587 15.6595 40.7049 15.6115 40.9714 15.4941C41.238 15.3766 41.4395 15.2273 41.5762 15.0462C41.7128 14.865 41.8018 14.6699 41.8433 14.4606C41.8848 14.2514 41.8884 14.0429 41.8542 13.8352C41.8176 13.6221 41.7606 13.4276 41.6831 13.2517L40.1541 9.7814L40.9217 9.44319L42.5035 13.0335C42.6492 13.364 42.7259 13.6898 42.7337 14.011C42.7392 14.3269 42.6868 14.6269 42.5765 14.911C42.4661 15.1951 42.3012 15.4492 42.0816 15.6733C41.8621 15.8973 41.5977 16.0775 41.2885 16.2137C40.9793 16.3499 40.668 16.4235 40.3544 16.4343C40.0409 16.4451 39.7421 16.3953 39.458 16.285C39.1738 16.1747 38.9171 16.0109 38.6877 15.7937C38.456 15.5711 38.2673 15.2946 38.1217 14.9641L36.5398 11.3738L37.3074 11.0356Z" fill="white"/>
<path d="M43.1358 8.66629L45.2181 8.03552C45.5972 7.92068 45.9255 7.87906 46.2028 7.91068C46.4786 7.93672 46.7106 8.00947 46.8989 8.12893C47.0912 8.24112 47.2456 8.38913 47.3621 8.57294C47.477 8.75118 47.5623 8.93229 47.618 9.11626C47.6754 9.30582 47.6977 9.49993 47.6848 9.69859C47.6703 9.89169 47.6209 10.0801 47.5365 10.2639C47.4561 10.4405 47.3391 10.6068 47.1855 10.7628C47.0358 10.9117 46.8529 11.031 46.6366 11.1209L49.1357 13.3128L48.1322 13.6168L45.8366 11.4636L44.9418 11.7347L45.7322 14.3438L44.9294 14.587L43.1358 8.66629ZM44.729 11.0322L45.7827 10.713C45.9388 10.6658 46.0887 10.6082 46.2325 10.5403C46.3802 10.4651 46.5024 10.3763 46.5992 10.274C46.7016 10.1699 46.7704 10.0456 46.8058 9.90098C46.8394 9.7508 46.8258 9.57536 46.765 9.37465C46.7042 9.17395 46.619 9.02325 46.5094 8.92256C46.3981 8.81628 46.2709 8.74827 46.128 8.71853C45.9907 8.68709 45.8406 8.68387 45.6777 8.70886C45.5187 8.72658 45.3612 8.75908 45.2051 8.80637L44.1514 9.12556L44.729 11.0322Z" fill="white"/>
<path d="M48.8862 7.09318L49.7062 6.91667L51.008 12.9646L50.188 13.1411L48.8862 7.09318Z" fill="white"/>
<path d="M53.2883 7.10489L51.3131 7.36441L51.2106 6.5847L55.9928 5.95639L56.0953 6.7361L54.12 6.99562L54.8234 12.3496L53.9918 12.4589L53.2883 7.10489Z" fill="white"/>
<path d="M59.2123 9.38354L56.7978 5.88511L57.8723 5.8629L59.6145 8.54496L61.2968 5.79214L62.3189 5.77102L60.051 9.36621L60.1055 12.0045L59.2668 12.0218L59.2123 9.38354Z" fill="white"/>
<path d="M69.0651 6.37612L70.2866 6.63922L71.2223 11.6317L71.2565 11.639L74.1475 7.47083L75.369 7.73393L74.0664 13.7816L73.2464 13.605L74.3172 8.63359L74.3001 8.62991L71.1878 13.1616L70.6411 13.0439L69.6704 7.63271L69.6533 7.62903L68.5825 12.6005L67.7624 12.4238L69.0651 6.37612Z" fill="white"/>
<path d="M79.593 9.19943L80.3049 9.46602L80.615 16.188L79.6985 15.8448L79.6537 14.1952L76.896 13.1626L75.787 14.3802L74.8705 14.037L79.593 9.19943ZM79.6247 13.4006L79.5404 10.3367L79.524 10.3306L77.4317 12.5794L79.6247 13.4006Z" fill="white"/>
<path d="M84.3054 11.1226L85.2741 11.6458L85.8563 17.7397L85.8716 17.748L88.288 13.2733L89.0261 13.6719L86.0866 19.1153L85.1486 18.6088L84.5357 12.4982L84.5204 12.4899L82.104 16.9646L81.3659 16.566L84.3054 11.1226Z" fill="white"/>
<path d="M92.7165 16.2055L93.3289 16.6559L91.7964 23.2082L91.008 22.6284L91.4143 21.029L89.0421 19.2843L87.6434 20.1538L86.855 19.5739L92.7165 16.2055ZM91.6028 20.2565L92.3562 17.2855L92.3421 17.2751L89.7163 18.8691L91.6028 20.2565Z" fill="white"/>
<path d="M98.5658 24.9056L96.4482 27.1C96.2745 27.0619 96.0942 27.0013 95.9073 26.9181C95.7205 26.8349 95.5354 26.7373 95.3521 26.6252C95.169 26.5213 94.9918 26.403 94.8205 26.2701C94.6535 26.1412 94.5028 26.0121 94.3687 25.8826C93.9915 25.5186 93.7147 25.1301 93.5384 24.7171C93.3664 24.3082 93.2808 23.8977 93.2817 23.4858C93.2868 23.0778 93.3703 22.6808 93.5324 22.2948C93.7026 21.9086 93.9395 21.5584 94.2428 21.244C94.5624 20.9128 94.9163 20.6594 95.3045 20.4835C95.697 20.3118 96.0949 20.2181 96.4984 20.2027C96.906 20.1913 97.309 20.2645 97.7073 20.4222C98.1096 20.5757 98.4806 20.8163 98.8201 21.1439C99.2309 21.5403 99.5157 21.9163 99.6745 22.2719C99.8373 22.6233 99.9197 22.9741 99.9218 23.3242L99.0514 23.3706C99.0368 23.0166 98.9592 22.7069 98.8185 22.4417C98.6819 22.1722 98.5004 21.9282 98.274 21.7098C98.0183 21.4631 97.7413 21.2888 97.4428 21.187C97.1485 21.081 96.851 21.0369 96.5506 21.0546C96.2502 21.0723 95.955 21.1517 95.665 21.2928C95.3791 21.4297 95.1188 21.6198 94.8842 21.8629C94.6415 22.1144 94.459 22.3916 94.3366 22.6945C94.2184 22.9932 94.1599 23.2971 94.1613 23.606C94.1627 23.915 94.2237 24.2167 94.3443 24.5112C94.4689 24.8015 94.6549 25.0659 94.9022 25.3046C95.116 25.5109 95.3354 25.6862 95.5604 25.8305C95.7937 25.9746 96.0138 26.0737 96.2208 26.1277L97.4161 24.889L96.4289 23.9364L96.975 23.3705L98.5658 24.9056Z" fill="white"/>
<path d="M102.05 24.7669L104.549 27.8815L103.936 28.3736L101.962 25.9133L100.524 27.0671L102.361 29.357L101.748 29.8492L99.9104 27.5592L98.3633 28.8005L100.436 31.3835L99.8223 31.8756L97.225 28.6383L102.05 24.7669Z" fill="white"/>
<path d="M106.047 29.9055L106.683 30.9814L103.65 35.0561L103.668 35.0862L108.692 34.3819L109.327 35.4578L104.001 38.6041L103.574 37.8819L107.953 35.2955L107.944 35.2804L102.503 36.0687L102.219 35.5872L105.535 31.2027L105.526 31.1877L101.148 33.7741L100.721 33.0518L106.047 29.9055Z" fill="white"/>
<path d="M110.3 37.5936L111.84 41.2777L111.115 41.5811L109.898 38.6708L108.197 39.382L109.329 42.0907L108.604 42.3941L107.471 39.6854L105.641 40.4505L106.919 43.5058L106.193 43.8092L104.592 39.9799L110.3 37.5936Z" fill="white"/>
<path d="M112.655 43.5322L112.943 44.5949L108.924 49.2124L108.928 49.2293L113.837 47.9013L114.056 48.7111L108.084 50.3265L107.806 49.2974L111.816 44.6462L111.812 44.6294L106.903 45.9573L106.684 45.1476L112.655 43.5322Z" fill="white"/>
<path d="M113.851 52.279L113.57 50.3068L114.348 50.1957L115.03 54.9707L114.251 55.0817L113.97 53.1095L108.624 53.8721L108.505 53.0416L113.851 52.279Z" fill="white"/>
<path d="M110.359 61.6172C110.124 61.7557 109.944 61.9382 109.821 62.1647C109.703 62.3973 109.637 62.6387 109.623 62.8888C109.615 63.0284 109.628 63.172 109.66 63.3197C109.699 63.4677 109.758 63.6023 109.839 63.7235C109.919 63.8505 110.021 63.9554 110.145 64.0382C110.269 64.1209 110.415 64.167 110.584 64.1764C110.822 64.1898 111.007 64.1242 111.137 63.9799C111.274 63.8358 111.389 63.6526 111.483 63.4303C111.583 63.2142 111.678 62.9745 111.768 62.7112C111.864 62.454 111.988 62.2159 112.141 61.9969C112.293 61.7836 112.489 61.6079 112.73 61.4697C112.977 61.3318 113.301 61.2741 113.703 61.2965C113.883 61.3066 114.073 61.3552 114.272 61.4421C114.471 61.535 114.65 61.6704 114.809 61.8485C114.969 62.0266 115.096 62.2496 115.192 62.5175C115.294 62.7916 115.334 63.1147 115.313 63.4869C115.294 63.8243 115.23 64.1445 115.119 64.4475C115.009 64.7506 114.805 65.0105 114.507 65.2272L113.925 64.512C114.094 64.4165 114.233 64.2755 114.343 64.0891C114.453 63.9027 114.514 63.6873 114.528 63.443C114.541 63.2104 114.52 63.0138 114.465 62.8531C114.415 62.6987 114.343 62.5721 114.249 62.4736C114.162 62.3753 114.064 62.3027 113.955 62.2558C113.847 62.2148 113.746 62.1916 113.653 62.1864C113.391 62.1718 113.186 62.2362 113.038 62.3796C112.89 62.523 112.766 62.7028 112.667 62.9189C112.567 63.1409 112.475 63.3808 112.39 63.6386C112.306 63.9022 112.193 64.141 112.053 64.3548C111.918 64.5748 111.739 64.7544 111.515 64.8936C111.297 65.0331 111.002 65.0925 110.63 65.0717C110.333 65.0551 110.069 64.982 109.837 64.8523C109.605 64.7285 109.412 64.566 109.26 64.365C109.108 64.164 108.996 63.9301 108.923 63.6635C108.851 63.3969 108.823 63.1153 108.839 62.8187C108.861 62.4232 108.952 62.052 109.112 61.705C109.271 61.358 109.502 61.0879 109.804 60.8948L110.359 61.6172Z" fill="white"/>
<path d="M111.117 68.0746L114.994 66.3328L114.822 67.3936L111.869 68.6219L114.272 70.7744L114.108 71.7835L110.982 68.9026L108.378 68.4789L108.512 67.651L111.117 68.0746Z" fill="white"/>
<path d="M109.002 72.0025C108.743 72.0887 108.53 72.2296 108.361 72.4252C108.197 72.6279 108.082 72.8501 108.016 73.0917C107.979 73.2266 107.961 73.3696 107.962 73.5208C107.969 73.6736 107.999 73.8177 108.053 73.9531C108.105 74.0942 108.182 74.2181 108.286 74.3249C108.39 74.4318 108.523 74.5075 108.686 74.552C108.916 74.615 109.111 74.5895 109.269 74.4757C109.432 74.3634 109.583 74.2084 109.722 74.0107C109.864 73.8202 110.008 73.6057 110.151 73.3672C110.299 73.1359 110.47 72.929 110.665 72.7468C110.858 72.5701 111.087 72.4394 111.352 72.3548C111.622 72.2716 111.951 72.283 112.339 72.389C112.513 72.4366 112.689 72.5238 112.865 72.6506C113.04 72.783 113.187 72.953 113.306 73.1605C113.424 73.368 113.502 73.6128 113.54 73.8948C113.581 74.184 113.553 74.5084 113.455 74.868C113.366 75.1939 113.236 75.4935 113.064 75.7668C112.893 76.04 112.639 76.2514 112.302 76.4009L111.884 75.5799C112.068 75.5217 112.234 75.413 112.38 75.2537C112.526 75.0944 112.632 74.8967 112.696 74.6607C112.758 74.4359 112.778 74.2392 112.758 74.0706C112.742 73.9092 112.698 73.7704 112.627 73.6544C112.562 73.54 112.481 73.4485 112.385 73.3799C112.288 73.317 112.194 73.2733 112.104 73.2487C111.851 73.1796 111.637 73.1997 111.462 73.3089C111.288 73.4182 111.129 73.568 110.986 73.7585C110.842 73.9546 110.702 74.1699 110.565 74.4043C110.427 74.6444 110.267 74.8543 110.085 75.034C109.907 75.2209 109.694 75.359 109.447 75.4483C109.204 75.5391 108.903 75.5354 108.544 75.4371C108.257 75.3587 108.014 75.2319 107.814 75.0566C107.613 74.8868 107.459 74.6877 107.353 74.4593C107.246 74.2309 107.185 73.9787 107.17 73.7028C107.155 73.4269 107.186 73.1457 107.265 72.8591C107.369 72.477 107.536 72.133 107.764 71.8271C107.993 71.5212 108.275 71.3055 108.611 71.18L109.002 72.0025Z" fill="white"/>
<path d="M110.91 79.6306L111.635 77.7754L112.368 78.062L110.61 82.5536L109.878 82.267L110.604 80.4118L105.575 78.444L105.881 77.6628L110.91 79.6306Z" fill="white"/>
<path d="M109.996 83.8576L108.151 87.3991L107.454 87.0358L108.911 84.2383L107.276 83.3865L105.92 85.9903L105.222 85.627L106.579 83.0232L104.82 82.1068L103.29 85.0438L102.592 84.6805L104.51 80.9995L109.996 83.8576Z" fill="white"/>
<path d="M106.916 89.5806L106.187 90.5956L101.237 89.4606L101.216 89.489L103.884 93.8036L103.155 94.8185L98.13 91.21L98.6192 90.5286L102.75 93.495L102.76 93.4808L99.8476 88.8181L100.174 88.3639L105.523 89.634L105.533 89.6198L101.402 86.6534L101.891 85.9721L106.916 89.5806Z" fill="white"/>
</svg>
