<svg width="109" height="41" viewBox="0 0 109 41" fill="none" xmlns="http://www.w3.org/2000/svg">
<g clip-path="url(#clip0_7449_106619)">
<path d="M62.7973 27.5442C62.3419 27.5434 61.9053 27.362 61.5836 27.0397C61.2618 26.7175 61.0811 26.2807 61.0811 25.8252V15.9982C61.0811 15.5423 61.2622 15.1051 61.5845 14.7828C61.9069 14.4604 62.3441 14.2793 62.8 14.2793C63.2559 14.2793 63.6931 14.4604 64.0154 14.7828C64.3378 15.1051 64.5189 15.5423 64.5189 15.9982V25.8252C64.5189 26.0512 64.4743 26.2749 64.3878 26.4837C64.3012 26.6924 64.1744 26.882 64.0145 27.0417C63.8546 27.2013 63.6648 27.3279 63.4559 27.4141C63.247 27.5003 63.0232 27.5445 62.7973 27.5442Z" fill="#006BFF"/>
<path d="M69.7619 27.5428C69.306 27.5428 68.8688 27.3617 68.5464 27.0394C68.2241 26.717 68.043 26.2798 68.043 25.8239V15.2293L69.0835 14.7807C69.4268 14.6347 72.5186 13.3672 75.2186 14.3888C75.6451 14.5501 75.9901 14.8742 76.1776 15.2898C76.3652 15.7054 76.3799 16.1785 76.2187 16.605C76.0574 17.0315 75.7333 17.3765 75.3176 17.564C74.902 17.7515 74.4289 17.7663 74.0024 17.605C73.2484 17.3347 72.2565 17.432 71.4808 17.605V25.8239C71.4808 26.2798 71.2997 26.717 70.9773 27.0394C70.655 27.3617 70.2178 27.5428 69.7619 27.5428Z" fill="#006BFF"/>
<path d="M83.6108 14.2844H81.7865V13.2033C81.7865 12.7474 81.6054 12.3102 81.283 11.9878C80.9606 11.6655 80.5234 11.4844 80.0675 11.4844C79.6117 11.4844 79.1744 11.6655 78.8521 11.9878C78.5297 12.3102 78.3486 12.7474 78.3486 13.2033V25.8249C78.3486 26.2808 78.5297 26.718 78.8521 27.0404C79.1744 27.3627 79.6117 27.5438 80.0675 27.5438C80.5234 27.5438 80.9606 27.3627 81.283 27.0404C81.6054 26.718 81.7865 26.2808 81.7865 25.8249V17.7168H83.6108C84.0667 17.7168 84.5039 17.5357 84.8262 17.2133C85.1486 16.891 85.3297 16.4538 85.3297 15.9979C85.3297 15.542 85.1486 15.1048 84.8262 14.7824C84.5039 14.4601 84.0667 14.279 83.6108 14.279V14.2844Z" fill="#006BFF"/>
<path d="M62.8244 12.4749C63.7737 12.4749 64.5433 11.7054 64.5433 10.756C64.5433 9.8067 63.7737 9.03711 62.8244 9.03711C61.8751 9.03711 61.1055 9.8067 61.1055 10.756C61.1055 11.7054 61.8751 12.4749 62.8244 12.4749Z" fill="#006BFF"/>
<path d="M89.1677 27.5436C88.7118 27.5436 88.2745 27.3625 87.9522 27.0402C87.6298 26.7178 87.4487 26.2806 87.4487 25.8247V15.2301L88.5298 14.8031C88.8704 14.668 91.9406 13.5247 94.6109 14.5328C95.0374 14.6941 95.3824 15.0182 95.5699 15.4338C95.7574 15.8495 95.7722 16.3226 95.6109 16.749C95.4496 17.1755 95.1255 17.5205 94.7099 17.708C94.2943 17.8956 93.8212 17.9103 93.3947 17.749C92.6379 17.4626 91.6541 17.5409 90.8758 17.6977V25.8247C90.8758 26.2787 90.6962 26.7143 90.3761 27.0364C90.0561 27.3584 89.6217 27.5408 89.1677 27.5436Z" fill="#006BFF"/>
<path d="M102.943 27.5442C101.576 27.5427 100.265 27.0001 99.2962 26.0348C98.3279 25.0695 97.7811 23.7601 97.7754 22.3928V15.9982C97.7754 15.5423 97.9565 15.1051 98.2789 14.7828C98.6012 14.4604 99.0384 14.2793 99.4943 14.2793C99.9502 14.2793 100.387 14.4604 100.71 14.7828C101.032 15.1051 101.213 15.5423 101.213 15.9982V22.3928C101.231 22.8394 101.421 23.2618 101.743 23.5715C102.065 23.8812 102.495 24.0542 102.942 24.0542C103.389 24.0542 103.818 23.8812 104.14 23.5715C104.463 23.2618 104.652 22.8394 104.67 22.3928V15.9982C104.67 15.5423 104.851 15.1051 105.173 14.7828C105.496 14.4604 105.933 14.2793 106.389 14.2793C106.845 14.2793 107.282 14.4604 107.604 14.7828C107.927 15.1051 108.108 15.5423 108.108 15.9982V22.3928C108.103 23.7598 107.557 25.0692 106.589 26.0346C105.621 27 104.31 27.5427 102.943 27.5442Z" fill="#006BFF"/>
<path d="M46.9648 27.8388V14.7712H50.4027V23.2361C52.3675 22.2388 54.9973 20.1279 54.9973 15.9982C54.9973 15.5423 55.1784 15.1051 55.5007 14.7828C55.8231 14.4604 56.2603 14.2793 56.7162 14.2793C57.1721 14.2793 57.6093 14.4604 57.9317 14.7828C58.254 15.1051 58.4351 15.5423 58.4351 15.9982C58.4351 23.3874 52.2757 26.5685 49.0351 27.409C49.0486 27.409 47.7108 27.7442 46.9648 27.8388Z" fill="#006BFF"/>
<path d="M15.2217 27.8388V14.7712H18.6622V23.2361C20.6271 22.2388 23.2568 20.1279 23.2568 15.9982C23.2568 15.5423 23.4379 15.1051 23.7603 14.7828C24.0826 14.4604 24.5198 14.2793 24.9757 14.2793C25.4316 14.2793 25.8688 14.4604 26.1912 14.7828C26.5136 15.1051 26.6947 15.5423 26.6947 15.9982C26.7082 23.3874 20.5406 26.5685 17.2974 27.409C17.2974 27.409 15.9703 27.7442 15.2217 27.8388Z" fill="#006BFF"/>
<path d="M25.9134 5.95093C22.3623 4.44463 18.3829 4.28871 14.7249 5.51254C11.0668 6.73638 7.98241 9.2555 6.05264 12.5955C4.12288 15.9354 3.48092 19.8657 4.24765 23.6461C5.01439 27.4265 7.13692 30.7961 10.2155 33.1203C13.294 35.4445 17.1162 36.5629 20.962 36.2648C24.8078 35.9667 28.412 34.2727 31.0956 31.5018C33.7792 28.731 35.3571 25.0746 35.5322 21.2212C35.7072 17.3678 34.4672 13.5834 32.0458 10.5807C32.7312 10.4565 33.3608 10.1216 33.8467 9.62258C34.3327 9.12356 34.6508 8.48532 34.7566 7.79688C35.1222 8.21041 35.465 8.64348 35.7837 9.09417C38.3413 12.6958 39.6147 17.0523 39.3997 21.4644C39.1847 25.8765 37.4936 30.0885 34.5978 33.4243C31.7021 36.7602 27.7696 39.0265 23.4315 39.8595C19.0934 40.6925 14.6012 40.044 10.6758 38.0179C6.75048 35.9919 3.61959 32.7059 1.78563 28.6872C-0.0483312 24.6685 -0.479022 20.1502 0.562677 15.8574C1.60438 11.5647 4.05806 7.74629 7.52995 5.01515C11.0018 2.284 15.2906 0.79844 19.708 0.796875C20.3512 0.796875 21.0593 0.821199 21.7377 0.883361C22.5449 0.975679 23.3456 1.1183 24.135 1.31039C25.2318 1.55365 26.3039 1.89744 27.3377 2.33742C28.1674 2.66985 29.0134 3.44012 28.8188 4.76985C28.8188 4.78336 28.5053 6.85363 25.9134 5.95093Z" fill="#006BFF"/>
</g>
<defs>
<clipPath id="clip0_7449_106619">
<rect width="108.108" height="40" fill="white" transform="translate(0 0.5)"/>
</clipPath>
</defs>
</svg>
